# AST/ASF file generated using VICON BodyLanguage
# -----------------------------------------------
:version 1.10
:name VICON
:units
  mass 1.0
  length 0.45
  angle deg
:documentation
   .ast/.asf automatically generated from VICON data using
   VICON BodyBuilder and BodyLanguage model FoxedUp or BRILLIANT.MOD
:root
   order TX TY TZ RX RY RZ
   axis XYZ
   position 0 0 0  
   orientation 0 0 0 
:bonedata
  begin
     id 1 
     name lhipjoint
     direction 0.576517 -0.752066 0.319413 
     length 2.45433 
     axis 0 0 0  XYZ
  end
  begin
     id 2 
     name lfemur
     direction 0.34202 -0.939693 0  
     length 7.54459  
     axis 0 0 20  XYZ
    dof rx ry rz
    limits (-160.0 20.0)
           (-70.0 70.0)
           (-60.0 70.0)
  end
  begin
     id 3 
     name ltibia
     direction 0.34202 -0.939693 0   
     length 7.73986   
     axis 0 0 20   XYZ
    dof rx
    limits (-10.0 170.0)
  end
  begin
     id 4 
     name lfoot
     direction 0.090693 -0.249177 0.964202   
     length 2.28437   
     axis -90 7.62852e-016 20   XYZ
    dof rx rz
    limits (-45.0 90.0)
           (-70.0 20.0)
  end
  begin
     id 5 
     name ltoes
     direction 1.5356e-011 -4.21928e-011 1   
     length 1.14243   
     axis -90 7.62852e-016 20   XYZ
    dof rx
    limits (-90.0 20.0)
  end
  begin
     id 6 
     name rhipjoint
     direction -0.573937 -0.753736 0.320122   
     length 2.44889  
     axis 0 0 0  XYZ 
  end
  begin
     id 7 
     name rfemur
     direction -0.34202 -0.939693 0   
     length 7.50166   
     axis 0 0 -20   XYZ
    dof rx ry rz
    limits (-160.0 20.0)
           (-70.0 70.0)
           (-70.0 60.0)
  end
  begin
     id 8 
     name rtibia
     direction -0.34202 -0.939693 0   
     length 7.54266   
     axis 0 0 -20   XYZ
    dof rx
    limits (-10.0 170.0)
 end
 begin
     id 9 
     name rfoot
     direction -0.114017 -0.31326 0.942798   
     length 2.34212  
     axis -90 -7.62852e-016 -20   XYZ
    dof rx rz
    limits (-45.0 90.0)
           (-20.0 70.0)
  end
  begin
     id 10 
     name rtoes
     direction -1.53557e-011 -4.21867e-011 1   
     length 1.16246   
     axis -90 -7.62852e-016 -20   XYZ
    dof rx
    limits (-90.0 20.0)
  end
  begin
     id 11 
     name lowerback
     direction -0.0228371 0.999155 -0.034167   
     length 2.0537   
     axis 0 0 0   XYZ
    dof rx ry rz
    limits (-20.0 45.0)
           (-30.0 30.0)
           (-30.0 30.0)
  end
  begin
     id 12 
     name upperback
     direction 0.0198981 0.999794 0.00389455   
     length 2.05302   
     axis 0 0 0   XYZ
    dof rx ry rz
    limits (-20.0 45.0)
           (-30.0 30.0)
           (-30.0 30.0)
  end
  begin
     id 13 
     name thorax
     direction 0.0304566 0.99935 0.0192987   
     length 2.05315   
     axis 0 0 0   XYZ
    dof rx ry rz
    limits (-20.0 45.0)
           (-30.0 30.0)
           (-30.0 30.0)
  end
  begin
     id 14 
     name lowerneck
     direction -0.0196762 0.99417 0.106017   
     length 1.82056   
     axis 0 0 0   XYZ
    dof rx ry rz
    limits (-20.0 45.0)
           (-30.0 30.0)
           (-30.0 30.0)
  end
  begin
     id 15 
     name upperneck
     direction 0.00517787 0.9802 -0.197944   
     length 1.83835   
     axis 0 0 0   XYZ
    dof rx ry rz
    limits (-20.0 45.0)
           (-30.0 30.0)
           (-30.0 30.0)
  end
  begin
     id 16
     name head
     direction 0.00211419 0.996945 -0.078081  
     length 1.85629  
     axis 0 0 0   XYZ
    dof rx ry rz
    limits (-20.0 45.0)
           (-30.0 30.0)
           (-30.0 30.0)
  end
  begin
     id 17 
     name lclavicle
     direction 0.930001 0.365811 -0.0357824  
     length 3.81961  
     axis 0 0 0   XYZ
    dof ry rz
    limits (-20.0 10.0)
           (0.0 20.0)
  end
  begin
     id 18 
     name lhumerus
     direction 1 -4.48968e-011 -3.06644e-027   
     length 5.14507   
     axis 180 -30 -90   XYZ
    dof rx ry rz
    limits (-60.0 90.0)
           (-90.0 90.0)
           (-90.0 90.0)
  end
  begin
     id 19
     name lradius
     direction 1 -4.48965e-011 9.06925e-028   
     length 3.50646   
     axis 180 -30 -90   XYZ
    dof rx
    limits (-10.0 170.0)
  end
  begin
     id 20
     name lwrist
     direction 1 -4.48957e-011 1.03922e-027   
     length 1.75323   
     axis -2.56395e-016 90 90   XYZ
    dof ry
    limits (-180.0 0.0)
 end
  begin
     id 21 
     name lhand
     direction 1 -4.48967e-011 2.08017e-027   
     length 0.629969   
     axis -1.32723e-015 90 90   XYZ
    dof rx rz
    limits (-90.0 90.0)
           (-45.0 45.0)
  end
  begin
     id 22 
     name lfingers
     direction 1 -4.49089e-011 4.20095e-027   
     length 0.507897   
     axis -2.6545e-015 90 90   XYZ
    dof rx
    limits (0.0 90.0)
  end
  begin
     id 23
     name lthumb
     direction 0.707107 -6.35001e-011 0.707107   
     length 0.729241   
     axis -90 45 5.05613e-014   XYZ
    dof rx rz
    limits (-45.0 45.0)
           (-45.0 45.0)
  end
  begin
     id 24 
     name rclavicle
     direction -0.881882 0.464123 -0.0829113   
     length 3.47515  
     axis 0 0 0   XYZ 
    dof ry rz
    limits (-10.0 20.0)
           (-20.0 0.0)
  end
  begin
     id 25 
     name rhumerus
     direction -1 -4.48961e-011 -1.55672e-027  
     length 5.232   
     axis 180 30 90   XYZ
    dof rx ry rz
    limits (-90.0 60.0)
           (-90.0 90.0)
           (-90.0 90.0)
  end
  begin
     id 26 
     name rradius
     direction -1 -4.48963e-011 6.18178e-029   
     length 3.65641   
     axis 180 30 90   XYZ
    dof rx
    limits (-10.0 170.0)
  end
  begin
     id 27 
     name rwrist
     direction -1 -4.48982e-011 1.04136e-027   
     length 1.8282   
     axis -2.56395e-016 -90 -90   XYZ
    dof ry
    limits (-180.0 0.0)
  end
  begin
     id 28
     name rhand
     direction -1 -4.48929e-011 2.07378e-027   
     length 0.656807   
     axis -1.32723e-015 -90 -90   XYZ
    dof rx rz
    limits (-90.0 90.0)
           (-45.0 45.0)
  end
  begin
     id 29
     name rfingers
     direction -1 -4.489e-011 4.13816e-027   
     length 0.529535   
     axis -2.6545e-015 -90 -90   XYZ
    dof rx
    limits (0.0 90.0)
  end
  begin
     id 30
     name rthumb
     direction -0.707107 -6.34843e-011 0.707107   
     length 0.760309   
     axis -90 -45 -5.05613e-014   XYZ
    dof rx rz
    limits (-45.0 45.0)
           (-45.0 45.0)
  end
:hierarchy
  begin
    root lhipjoint rhipjoint lowerback
    lhipjoint lfemur
    lfemur ltibia
    ltibia lfoot
    lfoot ltoes
    rhipjoint rfemur
    rfemur rtibia
    rtibia rfoot
    rfoot rtoes
    lowerback upperback
    upperback thorax
    thorax lowerneck lclavicle rclavicle
    lowerneck upperneck
    upperneck head
    lclavicle lhumerus
    lhumerus lradius
    lradius lwrist
    lwrist lhand lthumb
    lhand lfingers
    rclavicle rhumerus
    rhumerus rradius
    rradius rwrist
    rwrist rhand rthumb
    rhand rfingers
  end

#!OML:ASF H:\ManfredETheater\Project 1\Capture day 1\Session 1\subject.ASF
:FULLY-SPECIFIED
:DEGREES
47
root 4.94407 16.0967 21.076 -167.298 -11.4186 179.046
lowerback 19.4649 3.21364 -2.8908
upperback 0.776365 3.35723 -0.338379
thorax -10.2314 1.62636 0.350823
lowerneck -19.1041 -3.77537 -2.81608
upperneck 1.66934 -5.06077 4.32434
head 3.68758 -2.44897 1.34885
rclavicle -5.47652e-014 1.15295e-014
rhumerus -51.6542 -6.79493 -78.6594
rradius 54.8095
rwrist -14.3861
rhand -26.4959 -4.37657
rfingers 7.12502
rthumb 0.066787 -34.3563
lclavicle -5.47652e-014 1.15295e-014
lhumerus -35.6849 -16.8302 96.3119
lradius 97.4603
lwrist 8.05472
lhand -22.5043 -22.8589
lfingers 7.12502
lthumb 3.92175 7.08476
rfemur -26.3636 -20.1348 7.49286
rtibia 119.873
rfoot -13.8216 4.97119
rtoes -42.2798
lfemur -52.169 -3.81672 -26.3264
ltibia 60.4935
lfoot -15.667 -8.63591
ltoes 7.70049
48
root 4.9144 16.2043 20.665 -167.228 -12.3059 178.856
lowerback 19.2064 2.8228 -3.07022
upperback 0.492181 2.84931 -0.228299
thorax -10.4011 1.41521 0.717033
lowerneck -19.4531 -3.77735 -2.96632
upperneck 2.1005 -5.04134 4.55966
head 3.88407 -2.41323 1.43813
rclavicle 3.76697e-014 6.36111e-015
rhumerus -54.5313 -6.26794 -77.0693
rradius 55.4383
rwrist -12.4782
rhand -26.3554 -3.03078
rfingers 7.12502
rthumb 0.202514 -33.0104
lclavicle 3.76697e-014 6.36111e-015
lhumerus -33.0696 -18.4142 96.1015
lradius 100.409
lwrist 7.81885
lhand -22.7163 -22.3434
lfingers 7.12502
lthumb 3.71707 7.60388
rfemur -30.9754 -23.3999 5.98728
rtibia 124.725
rfoot -15.6529 5.11648
rtoes -42.1925
lfemur -50.0345 -4.24964 -26.3338
ltibia 59.6894
lfoot -16.7168 -8.87726
ltoes 7.65541
49
root 4.8853 16.3239 20.2564 -167.179 -13.1259 178.69
lowerback 18.9515 2.36801 -3.29638
upperback 0.251006 2.2494 -0.0457956
thorax -10.5191 1.16372 1.21546
lowerneck -19.7024 -3.64361 -3.03859
upperneck 2.34045 -4.84825 4.58469
head 3.99147 -2.31005 1.46966
rclavicle -1.2921e-015 1.98785e-015
rhumerus -57.3199 -5.54643 -75.3467
rradius 57.0322
rwrist -10.5987
rhand -26.229 -1.65853
rfingers 7.12502
rthumb 0.324566 -31.638
lclavicle -1.2921e-015 1.98785e-015
lhumerus -30.9417 -19.631 95.514
lradius 103.983
lwrist 8.82886
lhand -22.9345 -21.7948
lfingers 7.12502
lthumb 3.50634 8.15609
rfemur -35.6639 -26.7357 4.67429
rtibia 128.891
rfoot -17.2119 5.48783
rtoes -41.5281
lfemur -47.7723 -4.58375 -26.3087
ltibia 58.6232
lfoot -17.531 -9.17874
ltoes 7.592
50
root 4.85595 16.4573 19.8485 -167.172 -13.8466 178.561
lowerback 18.7076 1.8664 -3.5471
upperback 0.0517474 1.58412 0.198041
thorax -10.5849 0.882769 1.8127
lowerneck -19.8308 -3.38907 -3.02714
upperneck 2.43805 -4.50186 4.42572
head 4.02347 -2.14648 1.44829
rclavicle -1.99779e-014 2.32578e-014
rhumerus -59.9023 -4.63186 -73.5162
rradius 59.329
rwrist -9.19036
rhand -26.0949 -0.397188
rfingers 7.12502
rthumb 0.454087 -30.3764
lclavicle -1.99779e-014 2.32578e-014
lhumerus -29.1945 -20.5681 94.4566
lradius 108.001
lwrist 10.9239
lhand -23.0165 -21.3517
lfingers 7.12502
lthumb 3.4272 8.60047
rfemur -40.5027 -29.8924 3.77189
rtibia 132.318
rfoot -18.4029 6.06092
rtoes -40.2729
lfemur -45.3676 -4.83452 -26.2321
ltibia 57.2962
lfoot -18.0939 -9.49035
ltoes 7.38775
51
root 4.82474 16.6078 19.439 -167.241 -14.4232 178.548
lowerback 18.4723 1.34665 -3.73891
upperback -0.105241 0.910025 0.503408
thorax -10.594 0.593934 2.44459
lowerneck -19.8575 -3.0449 -2.95408
upperneck 2.47994 -4.04026 4.13348
head 4.01485 -1.93525 1.38804
rclavicle 4.28381e-014 1.19271e-015
rhumerus -62.1902 -3.49797 -71.6478
rradius 62.0455
rwrist -8.56542
rhand -25.9685 0.69851
rfingers 7.12502
rthumb 0.576182 -29.2805
lclavicle 4.28381e-014 1.19271e-015
lhumerus -27.7182 -21.2632 92.8719
lradius 112.228
lwrist 13.6279
lhand -22.8852 -20.9758
lfingers 7.12502
lthumb 3.55399 8.97431
rfemur -45.6008 -32.4557 3.61293
rtibia 134.953
rfoot -19.0804 6.74095
rtoes -38.3421
lfemur -42.8078 -5.00587 -26.0217
ltibia 55.7196
lfoot -18.3501 -9.76054
ltoes 6.98003
52
root 4.79079 16.7775 19.0264 -167.422 -14.8247 178.701
lowerback 18.2565 0.845283 -3.80351
upperback -0.218674 0.287342 0.85648
thorax -10.5551 0.320421 3.03939
lowerneck -19.7728 -2.65686 -2.84281
upperneck 2.52286 -3.52167 3.77132
head 3.9877 -1.69899 1.30594
rclavicle 2.0276e-014 1.39149e-015
rhumerus -64.1397 -2.15351 -69.8173
rradius 64.8951
rwrist -8.71557
rhand -25.8669 1.63654
rfingers 7.12502
rthumb 0.674272 -28.3421
lclavicle 2.0276e-014 1.39149e-015
lhumerus -26.42 -21.7265 90.7518
lradius 116.396
lwrist 16.2601
lhand -22.5275 -20.6298
lfingers 7.12502
lthumb 3.89939 9.31429
rfemur -50.9567 -34.074 4.34162
rtibia 136.777
rfoot -19.3079 7.30344
rtoes -36.0634
lfemur -40.076 -5.11564 -25.6287
ltibia 53.9072
lfoot -18.2711 -9.9231
ltoes 5.98227
53
root 4.75429 16.9675 18.6099 -167.747 -15.0459 179.041
lowerback 18.0936 0.394272 -3.70855
upperback -0.290671 -0.239222 1.24274
thorax -10.498 0.0807968 3.5509
lowerneck -19.5963 -2.26581 -2.71095
upperneck 2.6257 -2.99663 3.37951
head 3.96713 -1.4581 1.21175
rclavicle -8.64713e-015 2.24627e-014
rhumerus -65.7387 -0.620499 -68.0759
rradius 67.6164
rwrist -9.31083
rhand -25.762 2.4046
rfingers 7.12502
rthumb 0.775609 -27.5737
lclavicle -8.64713e-015 2.24627e-014
lhumerus -25.2571 -21.9573 88.1629
lradius 120.231
lwrist 18.1262
lhand -22.0984 -20.267
lfingers 7.12502
lthumb 4.31371 9.66904
rfemur -56.3847 -34.5059 5.8526
rtibia 137.803
rfoot -19.2647 7.46984
rtoes -34.0274
lfemur -37.1548 -5.20823 -25.0372
ltibia 51.8717
lfoot -17.7981 -9.94368
ltoes 4.32946
